<svg xmlns="http://www.w3.org/2000/svg" viewBox="0 0 53.36 56">
  <defs>
    <style>.cls-1{fill:#ba964d;}</style>
  </defs>
  <g id="Layer_2" data-name="Layer 2">
    <g id="Layer_2-2" data-name="Layer 2">
      <polygon class="cls-1" points="5.87 0 22.12 0 22.12 47.58 50.12 47.58 43.62 56 5.87 56 10.62 48.33 10.62 7.08 5.87 0"/>
      <path class="cls-1" d="M7.91,20.58a20.68,20.68,0,0,0,0,18.28Z"/>
      <path class="cls-1" d="M34.2,25.17l8.66-8.67A20.86,20.86,0,0,0,26.68,8.82c-.57,0-1.13,0-1.69.09V41.75C35.25,37,34.2,25.17,34.2,25.17Z"/>
      <path class="cls-1" d="M40.26,45.58a20.81,20.81,0,0,0,4.29-26.66c-1.2,1.3-3.56,3.69-8.26,8C36.37,41,25,44.17,25,44.17v1.41Z"/>
      <path class="cls-1" d="M7.91,44.14a23.62,23.62,0,0,1,0-28.83V10.78a26.64,26.64,0,0,0,0,37.89Z"/>
      <path class="cls-1" d="M50.36,29.72a23.63,23.63,0,0,1-6.12,15.86h3.88A26.67,26.67,0,0,0,26.68,3c-.57,0-1.13,0-1.69.06v3c.56,0,1.12-.06,1.69-.06A23.7,23.7,0,0,1,50.36,29.72Z"/>
      <path class="cls-1" d="M23.83,52.45H12.72A27,27,0,0,0,16,54.15l.29.13h7.58Z"/>
    </g>
  </g>
</svg>